<svg class="flo-chart__chart" version="1.1" width="100%" height="360" viewBox="0 0 2760 360" preserveAspectRatio="xMinYMin meet" xmlns="http://www.w3.org/2000/svg" xmlns:xlink="http://www.w3.org/1999/xlink"><g class="flo-chart__scope" transform="translate(30, 30)" width="2700" height="300" style="font-family: &quot;Open Sans&quot;, sans-serif;"><line class="flo-chart__scope-path" x1="50" y1="22.5" x2="2640" y2="22.5" style="stroke: rgb(117, 175, 36); stroke-width: 2;"/><g class="flo-chart__node flo-chart__node--node" transform="translate(0, 0)" width="100" height="80"><g class="flo-chart__tile" transform="translate(0, 0)"><image width="45" height="45" x="27.5" y="0" xmlns:xlink="http://www.w3.org/1999/xlink" xlink:href="https://d78vv2h34ll3s.cloudfront.net/static/new-functions/control.png"/><text x="50" y="60" text-anchor="middle" style="font-size: 12px;">User Okta</text><text x="50" y="72" text-anchor="middle" style="font-size: 12px;">Profile Upd...</text></g></g><g class="flo-chart__node flo-chart__node--node" transform="translate(100, 0)" width="100" height="80"><g class="flo-chart__tile" transform="translate(0, 0)"><image width="45" height="45" x="27.5" y="0" xmlns:xlink="http://www.w3.org/1999/xlink" xlink:href="https://d78vv2h34ll3s.cloudfront.net/static/new-functions/flologic.png"/><text x="50" y="60" text-anchor="middle" style="font-size: 12px;">Assign</text></g></g><g class="flo-chart__node flo-chart__node--node" transform="translate(200, 0)" width="100" height="80"><g class="flo-chart__tile" transform="translate(0, 0)"><image width="45" height="45" x="27.5" y="0" xmlns:xlink="http://www.w3.org/1999/xlink" xlink:href="https://d78vv2h34ll3s.cloudfront.net/static/new-functions/control.png"/><text x="50" y="60" text-anchor="middle" style="font-size: 12px;">Comment</text></g></g><g class="flo-chart__node flo-chart__node--node" transform="translate(300, 0)" width="100" height="80"><g class="flo-chart__tile" transform="translate(0, 0)"><image width="45" height="45" x="27.5" y="0" xmlns:xlink="http://www.w3.org/1999/xlink" xlink:href="https://d78vv2h34ll3s.cloudfront.net/static/new-functions/string.png"/><text x="50" y="60" text-anchor="middle" style="font-size: 12px;">Find Pattern</text></g></g><g class="flo-chart__node flo-chart__node--node" transform="translate(400, 0)" width="100" height="80"><g class="flo-chart__tile" transform="translate(0, 0)"><image width="45" height="45" x="27.5" y="0" xmlns:xlink="http://www.w3.org/1999/xlink" xlink:href="https://d78vv2h34ll3s.cloudfront.net/static/new-functions/control.png"/><text x="50" y="60" text-anchor="middle" style="font-size: 12px;">Comment</text></g></g><g class="flo-chart__node flo-chart__node--node" transform="translate(500, 0)" width="100" height="80"><g class="flo-chart__tile" transform="translate(0, 0)"><image width="45" height="45" x="27.5" y="0" xmlns:xlink="http://www.w3.org/1999/xlink" xlink:href="https://d78vv2h34ll3s.cloudfront.net/static/new-functions/branching.png"/><text x="50" y="60" text-anchor="middle" style="font-size: 12px;">Continue If</text></g></g><g class="flo-chart__node flo-chart__node--node" transform="translate(600, 0)" width="100" height="80"><g class="flo-chart__tile" transform="translate(0, 0)"><image width="45" height="45" x="27.5" y="0" xmlns:xlink="http://www.w3.org/1999/xlink" xlink:href="https://d78vv2h34ll3s.cloudfront.net/static/new-functions/control.png"/><text x="50" y="60" text-anchor="middle" style="font-size: 12px;">Comment</text></g></g><g class="flo-chart__node flo-chart__node--node" transform="translate(700, 0)" width="100" height="80"><g class="flo-chart__tile" transform="translate(0, 0)"><image width="45" height="45" x="27.5" y="0" xmlns:xlink="http://www.w3.org/1999/xlink" xlink:href="https://d78vv2h34ll3s.cloudfront.net/static/icons-pirsq/okta.png"/><text x="50" y="60" text-anchor="middle" style="font-size: 12px;">Read User</text></g></g><g class="flo-chart__node flo-chart__node--node" transform="translate(800, 0)" width="100" height="80"><g class="flo-chart__tile" transform="translate(0, 0)"><image width="45" height="45" x="27.5" y="0" xmlns:xlink="http://www.w3.org/1999/xlink" xlink:href="https://d78vv2h34ll3s.cloudfront.net/static/new-functions/control.png"/><text x="50" y="60" text-anchor="middle" style="font-size: 12px;">Comment</text></g></g><g class="flo-chart__node flo-chart__node--node" transform="translate(900, 0)" width="100" height="80"><g class="flo-chart__tile" transform="translate(0, 0)"><image width="45" height="45" x="27.5" y="0" xmlns:xlink="http://www.w3.org/1999/xlink" xlink:href="https://d78vv2h34ll3s.cloudfront.net/static/icons-pirsq/stash.png"/><text x="50" y="60" text-anchor="middle" style="font-size: 12px;">Search Rows</text></g></g><g class="flo-chart__node flo-chart__node--node" transform="translate(1000, 0)" width="100" height="80"><g class="flo-chart__tile" transform="translate(0, 0)"><image width="45" height="45" x="27.5" y="0" xmlns:xlink="http://www.w3.org/1999/xlink" xlink:href="https://d78vv2h34ll3s.cloudfront.net/static/new-functions/control.png"/><text x="50" y="60" text-anchor="middle" style="font-size: 12px;">Comment</text></g></g><g class="flo-chart__node flo-chart__node--branch" transform="translate(1100, 0)" width="1600" height="300"><path class="flo-chart__scope-path" d="M50,22.5 L50,237.5 C50,240 52.5,242.5 55,242.5 L152.5,242.5" style="stroke: rgb(241, 181, 100); stroke-width: 2; fill: none;"/><path class="flo-chart__scope-path" d="M52.5,242.5 L1595,242.5 C1597.5,242.5 1600,240 1600,237.5 L1600,22.5" style="stroke: rgb(241, 181, 100); stroke-width: 2; fill: none;"/><g transform="translate(80, 16)"><rect x="0" y="0" width="40" height="13" rx="6.5" style="fill: rgb(255, 255, 255);"/><text text-anchor="middle" x="20" y="10" style="fill: rgb(145, 172, 216); font-size: 10px;">true</text></g><g transform="translate(25, 73.5)"><rect x="0" y="0" width="50" height="13" rx="6.5" style="fill: rgb(255, 255, 255);"/><text text-anchor="middle" x="25" y="10" style="fill: rgb(145, 172, 216); font-size: 10px;">false</text></g><g class="flo-chart__tile" transform="translate(0, 0)"><image width="45" height="45" x="27.5" y="0" xmlns:xlink="http://www.w3.org/1999/xlink" xlink:href="https://d78vv2h34ll3s.cloudfront.net/static/new-functions/branching.png"/></g><g class="flo-chart__scope" transform="translate(100, 0)" width="1500" height="190" style="font-family: &quot;Open Sans&quot;, sans-serif;"><line class="flo-chart__scope-path" x1="50" y1="22.5" x2="1440" y2="22.5" style="stroke: rgb(117, 175, 36); stroke-width: 2;"/><g class="flo-chart__node flo-chart__node--node" transform="translate(0, 0)" width="100" height="80"><g class="flo-chart__tile" transform="translate(0, 0)"><image width="45" height="45" x="27.5" y="0" xmlns:xlink="http://www.w3.org/1999/xlink" xlink:href="https://d78vv2h34ll3s.cloudfront.net/static/new-functions/control.png"/><text x="50" y="60" text-anchor="middle" style="font-size: 12px;">Comment</text></g></g><g class="flo-chart__node flo-chart__node--node" transform="translate(100, 0)" width="100" height="80"><g class="flo-chart__tile" transform="translate(0, 0)"><image width="45" height="45" x="27.5" y="0" xmlns:xlink="http://www.w3.org/1999/xlink" xlink:href="https://d78vv2h34ll3s.cloudfront.net/static/new-functions/string.png"/><text x="50" y="60" text-anchor="middle" style="font-size: 12px;">Concatenate</text></g></g><g class="flo-chart__node flo-chart__node--node" transform="translate(200, 0)" width="100" height="80"><g class="flo-chart__tile" transform="translate(0, 0)"><image width="45" height="45" x="27.5" y="0" xmlns:xlink="http://www.w3.org/1999/xlink" xlink:href="https://d78vv2h34ll3s.cloudfront.net/static/icons-pirsq/okta.png"/><text x="50" y="60" text-anchor="middle" style="font-size: 12px;">Search Groups</text></g></g><g class="flo-chart__node flo-chart__node--node" transform="translate(300, 0)" width="100" height="80"><g class="flo-chart__tile" transform="translate(0, 0)"><image width="45" height="45" x="27.5" y="0" xmlns:xlink="http://www.w3.org/1999/xlink" xlink:href="https://d78vv2h34ll3s.cloudfront.net/static/new-functions/control.png"/><text x="50" y="60" text-anchor="middle" style="font-size: 12px;">Comment</text></g></g><g class="flo-chart__node flo-chart__node--branch" transform="translate(400, 0)" width="1100" height="190"><path class="flo-chart__scope-path" d="M50,22.5 L50,127.5 C50,130 52.5,132.5 55,132.5 L152.5,132.5" style="stroke: rgb(241, 181, 100); stroke-width: 2; fill: none;"/><path class="flo-chart__scope-path" d="M52.5,132.5 L1095,132.5 C1097.5,132.5 1100,130 1100,127.5 L1100,22.5" style="stroke: rgb(241, 181, 100); stroke-width: 2; fill: none;"/><g transform="translate(80, 16)"><rect x="0" y="0" width="40" height="13" rx="6.5" style="fill: rgb(255, 255, 255);"/><text text-anchor="middle" x="20" y="10" style="fill: rgb(145, 172, 216); font-size: 10px;">true</text></g><g transform="translate(25, 73.5)"><rect x="0" y="0" width="50" height="13" rx="6.5" style="fill: rgb(255, 255, 255);"/><text text-anchor="middle" x="25" y="10" style="fill: rgb(145, 172, 216); font-size: 10px;">false</text></g><g class="flo-chart__tile" transform="translate(0, 0)"><image width="45" height="45" x="27.5" y="0" xmlns:xlink="http://www.w3.org/1999/xlink" xlink:href="https://d78vv2h34ll3s.cloudfront.net/static/new-functions/branching.png"/></g><g class="flo-chart__scope" transform="translate(100, 0)" width="1000" height="80" style="font-family: &quot;Open Sans&quot;, sans-serif;"><line class="flo-chart__scope-path" x1="50" y1="22.5" x2="940" y2="22.5" style="stroke: rgb(117, 175, 36); stroke-width: 2;"/><g class="flo-chart__node flo-chart__node--node" transform="translate(0, 0)" width="100" height="80"><g class="flo-chart__tile" transform="translate(0, 0)"><image width="45" height="45" x="27.5" y="0" xmlns:xlink="http://www.w3.org/1999/xlink" xlink:href="https://d78vv2h34ll3s.cloudfront.net/static/new-functions/control.png"/><text x="50" y="60" text-anchor="middle" style="font-size: 12px;">Comment</text></g></g><g class="flo-chart__node flo-chart__node--node" transform="translate(100, 0)" width="100" height="80"><g class="flo-chart__tile" transform="translate(0, 0)"><image width="45" height="45" x="27.5" y="0" xmlns:xlink="http://www.w3.org/1999/xlink" xlink:href="https://d78vv2h34ll3s.cloudfront.net/static/icons-pirsq/okta.png"/><text x="50" y="60" text-anchor="middle" style="font-size: 12px;">Create Group</text></g></g><g class="flo-chart__node flo-chart__node--node" transform="translate(200, 0)" width="100" height="80"><g class="flo-chart__tile" transform="translate(0, 0)"><image width="45" height="45" x="27.5" y="0" xmlns:xlink="http://www.w3.org/1999/xlink" xlink:href="https://d78vv2h34ll3s.cloudfront.net/static/new-functions/control.png"/><text x="50" y="60" text-anchor="middle" style="font-size: 12px;">Comment</text></g></g><g class="flo-chart__node flo-chart__node--node" transform="translate(300, 0)" width="100" height="80"><g class="flo-chart__tile" transform="translate(0, 0)"><image width="45" height="45" x="27.5" y="0" xmlns:xlink="http://www.w3.org/1999/xlink" xlink:href="https://d78vv2h34ll3s.cloudfront.net/static/new-functions/string.png"/><text x="50" y="60" text-anchor="middle" style="font-size: 12px;">Compose</text></g></g><g class="flo-chart__node flo-chart__node--node" transform="translate(400, 0)" width="100" height="80"><g class="flo-chart__tile" transform="translate(0, 0)"><image width="45" height="45" x="27.5" y="0" xmlns:xlink="http://www.w3.org/1999/xlink" xlink:href="https://d78vv2h34ll3s.cloudfront.net/static/new-functions/control.png"/><text x="50" y="60" text-anchor="middle" style="font-size: 12px;">Comment</text></g></g><g class="flo-chart__node flo-chart__node--node" transform="translate(500, 0)" width="100" height="80"><g class="flo-chart__tile" transform="translate(0, 0)"><image width="45" height="45" x="27.5" y="0" xmlns:xlink="http://www.w3.org/1999/xlink" xlink:href="https://d78vv2h34ll3s.cloudfront.net/static/icons-pirsq/okta.png"/><text x="50" y="60" text-anchor="middle" style="font-size: 12px;">Create Group</text><text x="50" y="72" text-anchor="middle" style="font-size: 12px;">Rule</text></g></g><g class="flo-chart__node flo-chart__node--node" transform="translate(600, 0)" width="100" height="80"><g class="flo-chart__tile" transform="translate(0, 0)"><image width="45" height="45" x="27.5" y="0" xmlns:xlink="http://www.w3.org/1999/xlink" xlink:href="https://d78vv2h34ll3s.cloudfront.net/static/new-functions/control.png"/><text x="50" y="60" text-anchor="middle" style="font-size: 12px;">Comment</text></g></g><g class="flo-chart__node flo-chart__node--node" transform="translate(700, 0)" width="100" height="80"><g class="flo-chart__tile" transform="translate(0, 0)"><image width="45" height="45" x="27.5" y="0" xmlns:xlink="http://www.w3.org/1999/xlink" xlink:href="https://d78vv2h34ll3s.cloudfront.net/static/icons-pirsq/okta.png"/><text x="50" y="60" text-anchor="middle" style="font-size: 12px;">Activate Group</text><text x="50" y="72" text-anchor="middle" style="font-size: 12px;">Rule</text></g></g><g class="flo-chart__node flo-chart__node--node" transform="translate(800, 0)" width="100" height="80"><g class="flo-chart__tile" transform="translate(0, 0)"><image width="45" height="45" x="27.5" y="0" xmlns:xlink="http://www.w3.org/1999/xlink" xlink:href="https://d78vv2h34ll3s.cloudfront.net/static/new-functions/control.png"/><text x="50" y="60" text-anchor="middle" style="font-size: 12px;">Comment</text></g></g><g class="flo-chart__node flo-chart__node--node" transform="translate(900, 0)" width="100" height="80"><g class="flo-chart__tile" transform="translate(0, 0)"><image width="45" height="45" x="27.5" y="0" xmlns:xlink="http://www.w3.org/1999/xlink" xlink:href="https://d78vv2h34ll3s.cloudfront.net/static/icons-pirsq/stash.png"/><text x="50" y="60" text-anchor="middle" style="font-size: 12px;">Create Row</text></g></g></g><g class="flo-chart__scope" transform="translate(100, 110)" width="0" height="80" style="font-family: &quot;Open Sans&quot;, sans-serif;"><line class="flo-chart__scope-path" x1="50" y1="22.5" x2="50" y2="22.5" style="stroke: rgb(241, 181, 100); stroke-width: 2;"/></g></g></g><g class="flo-chart__scope" transform="translate(100, 220)" width="0" height="80" style="font-family: &quot;Open Sans&quot;, sans-serif;"><line class="flo-chart__scope-path" x1="50" y1="22.5" x2="50" y2="22.5" style="stroke: rgb(241, 181, 100); stroke-width: 2;"/></g></g></g></svg>